<svg width="100" height="30" viewBox="0 0 100 30" fill="none" xmlns="http://www.w3.org/2000/svg">
<path fill-rule="evenodd" clip-rule="evenodd" d="M4.9919 10.2609C4.9919 7.50255 7.22278 5.26093 9.9835 5.26093C12.7441 5.26093 14.9749 7.5024 14.9751 10.2607C17.7357 10.2608 19.9664 12.5024 19.9664 15.2607H17.4706C17.4706 13.885 16.3482 12.7607 14.9748 12.7607V10.2609H12.4793C12.4793 8.88523 11.3569 7.76093 9.9835 7.76093C8.61011 7.76093 7.4877 8.88523 7.4877 10.2609H4.9919ZM31.6585 23.0988C29.6147 23.0988 27.9954 22.5297 26.8006 21.3915C25.6058 20.2374 25.0083 18.5933 25.0083 16.4591V12.4753C25.0083 10.3411 25.6058 8.70488 26.8006 7.56664C27.9954 6.4126 29.6147 5.83557 31.6585 5.83557C33.6866 5.83557 35.2509 6.39679 36.3514 7.51921C37.4676 8.62583 38.0257 10.1514 38.0257 12.0959V12.2381H34.9601V12.001C34.9601 11.0209 34.6849 10.2146 34.1347 9.58227C33.6001 8.94991 32.7748 8.63374 31.6585 8.63374C30.558 8.63374 29.6934 8.97363 29.0645 9.65341C28.4356 10.3332 28.1212 11.258 28.1212 12.4279V16.5065C28.1212 17.6606 28.4356 18.5854 29.0645 19.281C29.6934 19.9608 30.558 20.3007 31.6585 20.3007C32.7748 20.3007 33.6001 19.9845 34.1347 19.3521C34.6849 18.704 34.9601 17.8977 34.9601 16.9334V16.5065H38.0257V16.8385C38.0257 18.783 37.4676 20.3165 36.3514 21.4389C35.2509 22.5455 33.6866 23.0988 31.6585 23.0988ZM39.9144 22.7668V6.16756H42.8858V22.7668H39.9144ZM47.8654 22.3874C48.793 22.8617 49.8384 23.0988 51.0018 23.0988C52.1652 23.0988 53.2107 22.8617 54.1383 22.3874C55.0658 21.9132 55.7969 21.2255 56.3314 20.3244C56.8659 19.4233 57.1332 18.3404 57.1332 17.0757V16.6962C57.1332 15.4315 56.8659 14.3486 56.3314 13.4475C55.7969 12.5464 55.0658 11.8587 54.1383 11.3845C53.2107 10.9102 52.1652 10.6731 51.0018 10.6731C49.8384 10.6731 48.793 10.9102 47.8654 11.3845C46.9378 11.8587 46.2068 12.5464 45.6722 13.4475C45.1377 14.3486 44.8704 15.4315 44.8704 16.6962V17.0757C44.8704 18.3404 45.1377 19.4233 45.6722 20.3244C46.2068 21.2255 46.9378 21.9132 47.8654 22.3874ZM53.2657 19.5655C52.6683 20.1505 51.9137 20.4429 51.0018 20.4429C50.09 20.4429 49.3353 20.1505 48.7379 19.5655C48.1405 18.9648 47.8418 18.1111 47.8418 17.0045V16.7674C47.8418 15.6608 48.1405 14.815 48.7379 14.2301C49.3353 13.6293 50.09 13.329 51.0018 13.329C51.9294 13.329 52.684 13.6293 53.2657 14.2301C53.8631 14.815 54.1618 15.6608 54.1618 16.7674V17.0045C54.1618 18.1111 53.8631 18.9648 53.2657 19.5655ZM59.1339 22.7668V11.0051H62.0581V12.5464H62.4826C62.6712 12.1354 63.025 11.7481 63.5438 11.3845C64.0626 11.0051 64.8487 10.8154 65.902 10.8154C66.8139 10.8154 67.6078 11.0288 68.2838 11.4556C68.9756 11.8666 69.5101 12.4437 69.8874 13.1867C70.2647 13.9139 70.4534 14.7676 70.4534 15.7477V22.7668H67.482V15.9848C67.482 15.0995 67.2619 14.4356 66.8217 13.9929C66.3972 13.5503 65.7841 13.329 64.9823 13.329C64.0704 13.329 63.363 13.6372 62.8599 14.2538C62.3568 14.8545 62.1053 15.7003 62.1053 16.7911V22.7668H59.1339ZM72.9235 11.0051V22.7668H75.8949V11.0051H72.9235ZM73.0414 9.108C73.4187 9.4558 73.8746 9.62969 74.4092 9.62969C74.9594 9.62969 75.4154 9.4558 75.7769 9.108C76.1385 8.76021 76.3193 8.30175 76.3193 7.73263C76.3193 7.16352 76.1385 6.70506 75.7769 6.35727C75.4154 6.00947 74.9594 5.83557 74.4092 5.83557C73.8746 5.83557 73.4187 6.00947 73.0414 6.35727C72.6798 6.70506 72.499 7.16352 72.499 7.73263C72.499 8.30175 72.6798 8.76021 73.0414 9.108ZM80.3792 22.7668V13.4712H77.4079V11.0051H80.3792V8.82344C80.3792 8.01719 80.6151 7.37693 81.0867 6.90267C81.5741 6.4126 82.2029 6.16756 82.9733 6.16756H86.039V8.63374H84.0109C83.5707 8.63374 83.3506 8.87087 83.3506 9.34513V11.0051H86.4163V13.4712H83.3506V22.7668H80.3792ZM89.2481 24.901V27.5095H96.6057C97.3918 27.5095 98.0207 27.2644 98.4923 26.7744C98.964 26.3001 99.1998 25.6598 99.1998 24.8536V11.0051H96.2284V16.9808C96.2284 18.0716 95.9769 18.9253 95.4738 19.5418C94.9707 20.1426 94.2632 20.4429 93.3514 20.4429C92.5496 20.4429 91.9286 20.2216 91.4884 19.779C91.0639 19.3363 90.8517 18.6723 90.8517 17.787V11.0051H87.8803V18.0242C87.8803 18.9885 88.069 19.8422 88.4463 20.5852C88.8236 21.3282 89.3503 21.9132 90.0263 22.34C90.718 22.751 91.5198 22.9565 92.4317 22.9565C93.1391 22.9565 93.7208 22.8696 94.1768 22.6957C94.6327 22.5218 94.9943 22.3005 95.2615 22.0317C95.5288 21.763 95.7253 21.4942 95.8511 21.2255H96.2756V24.1896C96.2756 24.6639 96.0555 24.901 95.6153 24.901H89.2481ZM14.9748 20.2607V17.7607C16.3482 17.7607 17.4706 16.6364 17.4706 15.2607H19.9664C19.9664 18.0261 17.7356 20.2607 14.9748 20.2607ZM9.98426 19.926C12.5637 19.926 14.6412 17.831 14.6412 15.2612C14.6412 12.6774 12.5637 10.5964 9.98426 10.5964C7.40481 10.5964 5.3273 12.6774 5.3273 15.2612C5.3273 17.831 7.40481 19.926 9.98426 19.926ZM9.98426 17.5936C8.70151 17.5936 7.65578 16.5461 7.65578 15.2612C7.65578 13.9763 8.70151 12.9288 9.98426 12.9288C11.267 12.9288 12.3127 13.9763 12.3127 15.2612C12.3127 16.5461 11.267 17.5936 9.98426 17.5936ZM0 15.2607H2.4958C2.4958 16.6364 3.61821 17.7607 4.9916 17.7607V20.2607C2.23088 20.2607 0 18.0261 0 15.2607ZM0 15.2607H2.4958C2.4958 13.885 3.61821 12.7607 4.9916 12.7607V10.2607C2.23088 10.2607 0 12.5023 0 15.2607ZM7.4877 20.2611C7.4877 21.6368 8.61011 22.7611 9.9835 22.7611C11.3569 22.7611 12.4793 21.6368 12.4793 20.2611H14.9751C14.9751 23.0264 12.7442 25.2611 9.9835 25.2611C7.22278 25.2611 4.9919 23.0264 4.9919 20.2611H7.4877Z" fill="#282828"/>
</svg>
