<svg width="99" height="36" viewBox="0 0 99 36" fill="none" xmlns="http://www.w3.org/2000/svg">
<path d="M5 18H19" stroke="#282828" stroke-width="1.5" stroke-linecap="round" stroke-linejoin="round"/>
<path d="M5 18L11 24" stroke="#282828" stroke-width="1.5" stroke-linecap="round" stroke-linejoin="round"/>
<path d="M5 18L11 12" stroke="#282828" stroke-width="1.5" stroke-linecap="round" stroke-linejoin="round"/>
<path d="M40.6335 13.8182V24H39.4006V15.1108H39.3409L36.8551 16.7614V15.5085L39.4006 13.8182H40.6335ZM47.1811 13.3409L43.8999 25.5312H42.826L46.1072 13.3409H47.1811ZM52.1316 13.8182V24H50.8986V15.1108H50.839L48.3532 16.7614V15.5085L50.8986 13.8182H52.1316ZM58.2417 24.1392C57.6583 24.1392 57.133 24.0232 56.6657 23.7912C56.1983 23.5592 55.8238 23.241 55.5421 22.8366C55.2604 22.4323 55.1062 21.9716 55.0797 21.4545H56.2729C56.3193 21.9152 56.5281 22.2964 56.8993 22.598C57.2739 22.8963 57.7213 23.0455 58.2417 23.0455C58.6593 23.0455 59.0305 22.9477 59.3553 22.7521C59.6834 22.5566 59.9403 22.2881 60.1259 21.9467C60.3148 21.602 60.4093 21.2126 60.4093 20.7784C60.4093 20.3343 60.3115 19.9382 60.1159 19.5902C59.9237 19.2389 59.6586 18.9621 59.3205 18.7599C58.9824 18.5578 58.5963 18.455 58.1621 18.4517C57.8506 18.4484 57.5307 18.4964 57.2026 18.5959C56.8745 18.692 56.6043 18.8163 56.3922 18.9688L55.2388 18.8295L55.8553 13.8182H61.1451V14.9119H56.8894L56.5314 17.9148H56.5911C56.7999 17.7491 57.0617 17.6115 57.3766 17.5021C57.6915 17.3928 58.0196 17.3381 58.361 17.3381C58.9841 17.3381 59.5392 17.4872 60.0265 17.7855C60.517 18.0805 60.9015 18.4848 61.1799 18.9986C61.4616 19.5123 61.6025 20.099 61.6025 20.7585C61.6025 21.4081 61.4566 21.9882 61.165 22.4986C60.8766 23.0057 60.4789 23.4067 59.9718 23.7017C59.4647 23.9934 58.888 24.1392 58.2417 24.1392Z" fill="#282828"/>
<path d="M80 18H94" stroke="#282828" stroke-width="1.5" stroke-linecap="round" stroke-linejoin="round"/>
<path d="M88 24L94 18" stroke="#282828" stroke-width="1.5" stroke-linecap="round" stroke-linejoin="round"/>
<path d="M88 12L94 18" stroke="#282828" stroke-width="1.5" stroke-linecap="round" stroke-linejoin="round"/>
</svg>
